<svg width="912" height="724" viewBox="0 0 912 724" fill="none" xmlns="http://www.w3.org/2000/svg">
<path d="M721.047 719C721.574 719 722 720.119 722 721.5C722 722.835 721.602 723.925 721.1 723.996L721.047 724H0.952507C0.426452 724 0 722.881 0 721.5C0 720.165 0.398496 719.075 0.900246 719.004L0.952507 719H721.047Z" fill="#090E2B"/>
<path fill-rule="evenodd" clip-rule="evenodd" d="M531.626 721.589C533.378 721.343 535.333 721.777 537.084 721.531H911.553C911.381 707.289 903.256 686.648 890.818 679.678C878.389 672.716 862.253 672.937 850.02 680.218C855.535 650.996 859.528 620.466 851.484 591.825C843.457 563.184 820.587 536.817 791.048 533.283C763.349 529.978 736.453 547.378 720.505 570.26C704.558 593.142 697.406 620.842 690.557 647.871C691.334 635.085 684.993 622.102 674.446 614.837C663.89 607.573 649.497 606.296 637.828 611.581C624.802 617.48 616.136 630.536 612.119 644.264C608.109 657.999 608.117 672.528 608.158 686.828C599.812 667.914 575.682 657.729 556.313 664.945C536.937 672.168 525.555 701.832 531.626 721.589Z" fill="#F67A49"/>
<path fill-rule="evenodd" clip-rule="evenodd" d="M610.949 721.592C611.971 721.446 613.107 721.714 614.129 721.559H832.231C832.133 713.304 827.392 701.339 820.158 697.304C812.916 693.27 803.524 693.392 796.396 697.621C799.608 680.678 801.93 662.971 797.254 646.37C792.57 629.768 779.247 614.485 762.04 612.435C745.912 610.516 730.251 620.602 720.957 633.868C711.671 647.134 707.51 663.182 703.513 678.856C703.963 671.447 700.276 663.923 694.129 659.717C687.982 655.504 679.596 654.756 672.803 657.822C665.217 661.247 660.166 668.811 657.828 676.766C655.498 684.729 655.498 693.156 655.523 701.436C650.668 690.48 636.608 684.575 625.328 688.764C614.039 692.944 607.41 710.139 610.949 721.592Z" fill="#FFB201"/>
<path fill-rule="evenodd" clip-rule="evenodd" d="M399.986 721.61C399.986 721.61 369.048 624.991 306.864 536.539C244.681 448.087 253.752 387.849 306.864 372.332C359.977 356.815 446.286 402.621 472.991 465.204C490.259 505.671 519.598 633.653 447.221 721.61C426.544 721.04 399.986 721.61 399.986 721.61Z" fill="#017C7F"/>
<path fill-rule="evenodd" clip-rule="evenodd" d="M386.937 386.175C348.87 213.145 414.768 189.404 488.017 210.355C561.267 231.306 610.651 322.475 599.478 409.573C582.424 542.51 482.429 721.61 482.429 721.61H425.005C425.005 613.34 412.315 501.529 386.937 386.175Z" fill="#009BA0"/>
<path d="M468.357 267.111C469.353 266.661 470.518 267.073 471.018 268.029L471.084 268.167L471.398 268.889L471.788 269.816C471.94 270.182 472.102 270.576 472.272 270.998L472.535 271.651C473.683 274.528 474.961 277.955 476.336 281.925C480.256 293.247 484.174 306.661 487.828 322.112C496.47 358.655 502.293 400.711 504.003 448.013C505.536 490.409 502.688 531.134 495.392 576.408L495.13 578.027C488.789 616.904 479.807 656.956 463.489 721.799C463.213 722.898 462.098 723.564 460.999 723.288C459.9 723.011 459.234 721.896 459.51 720.798L460.957 715.037C476.337 653.663 484.953 614.938 491.08 577.366C498.528 531.7 501.444 490.779 499.903 448.161C498.202 401.133 492.416 359.342 483.835 323.057L483.361 321.07C479.876 306.59 476.166 293.974 472.459 283.268L472.035 282.051C470.842 278.655 469.731 275.694 468.724 273.172L468.347 272.236C468.227 271.94 468.111 271.659 468.001 271.394L467.626 270.502L467.33 269.824C466.865 268.791 467.324 267.576 468.357 267.111Z" fill="#090E2B"/>
<path fill-rule="evenodd" clip-rule="evenodd" d="M666.46 397.182C776.447 391.58 783.437 482.884 769.17 520.478C752.337 564.831 701.835 594.395 661.488 611.956C566.57 653.272 542.404 721.61 542.404 721.61H459.298C459.298 721.61 475.156 406.926 666.46 397.182Z" fill="#A191FF"/>
<path d="M682.843 467.078C683.892 466.651 685.089 467.155 685.516 468.205C685.943 469.254 685.438 470.451 684.389 470.878C588.365 509.945 528.608 593.453 505.079 721.668C504.874 722.783 503.805 723.52 502.691 723.316C501.576 723.111 500.839 722.042 501.043 720.928C524.81 591.417 585.423 506.712 682.843 467.078Z" fill="#090E2B"/>
<path fill-rule="evenodd" clip-rule="evenodd" d="M482.001 207.239C482.001 321.638 381.051 414.403 256.467 414.403C225.06 414.403 195.225 408.473 168.098 397.834L60.0708 443.392L107.553 362.704C60.6123 324.78 31.0001 269.223 31.0001 207.239C31.0001 92.7652 131.965 0 256.467 0C381.051 0 482.001 92.7652 482.001 207.239Z" fill="#FFB201"/>
<path opacity="0.5" d="M140.187 138.873H362.724C368.869 138.873 373.851 143.45 373.851 149.097C373.851 154.744 368.869 159.321 362.724 159.321H140.187C134.042 159.321 129.061 154.744 129.061 149.097C129.061 143.45 134.042 138.873 140.187 138.873Z" fill="white"/>
<path opacity="0.5" d="M168.004 196.808H362.724C368.869 196.808 373.851 201.385 373.851 207.032C373.851 212.678 368.869 217.255 362.724 217.255H168.004C161.859 217.255 156.878 212.678 156.878 207.032C156.878 201.385 161.859 196.808 168.004 196.808Z" fill="white"/>
<path opacity="0.5" d="M238.475 254.745H362.724C368.869 254.745 373.851 259.323 373.851 264.969C373.851 270.616 368.869 275.193 362.724 275.193H238.475C232.329 275.193 227.348 270.616 227.348 264.969C227.348 259.323 232.329 254.745 238.475 254.745Z" fill="white"/>
</svg>
