<svg width="1670" height="1688" viewBox="0 0 1670 1688" fill="none" xmlns="http://www.w3.org/2000/svg">
<path fill-rule="evenodd" clip-rule="evenodd" d="M1194.97 1683.35H474.647C417.957 1683.35 372 1637.39 372 1580.7V103.511C372 46.8204 417.957 0.86377 474.647 0.86377H1194.97C1251.66 0.86377 1297.61 46.8204 1297.61 103.511V1580.7C1297.61 1637.39 1251.66 1683.35 1194.97 1683.35Z" fill="#22212F"/>
<path fill-rule="evenodd" clip-rule="evenodd" d="M1167.94 70.1313H1058.93V98.2816C1058.93 136.66 1027.82 167.775 989.441 167.775H680.173C641.792 167.775 610.677 136.66 610.677 98.2793V70.1313H501.675C468.312 70.1313 441.265 97.1757 441.265 130.539V1553.67C441.265 1587.04 468.312 1614.08 501.675 1614.08H1167.94C1201.3 1614.08 1228.35 1587.04 1228.35 1553.67V130.539C1228.35 97.1757 1201.3 70.1313 1167.94 70.1313Z" fill="white"/>
<path fill-rule="evenodd" clip-rule="evenodd" d="M642.23 1268.62H555.521C534.833 1268.62 518.063 1251.85 518.063 1231.16V1144.45C518.063 1123.76 534.833 1106.99 555.521 1106.99H642.23C662.917 1106.99 679.687 1123.76 679.687 1144.45V1231.16C679.687 1251.85 662.917 1268.62 642.23 1268.62Z" stroke="#C7D2F2" stroke-width="5" stroke-linecap="round" stroke-linejoin="round" stroke-dasharray="10 12"/>
<path fill-rule="evenodd" clip-rule="evenodd" d="M642.398 1268.84H555.689C535.001 1268.84 518.231 1252.07 518.231 1231.39V1144.68C518.231 1123.99 535.001 1107.22 555.689 1107.22H642.398C663.086 1107.22 679.855 1123.99 679.855 1144.68V1231.39C679.855 1252.07 663.086 1268.84 642.398 1268.84Z" fill="#FFB201"/>
<path fill-rule="evenodd" clip-rule="evenodd" d="M1124.07 773.078H556C535.14 773.078 518.231 756.308 518.231 735.62V428.913C518.231 408.225 535.14 391.456 556 391.456H1124.07C1144.93 391.456 1161.84 408.225 1161.84 428.913V735.62C1161.84 756.308 1144.93 773.078 1124.07 773.078Z" fill="#A191FF"/>
<path fill-rule="evenodd" clip-rule="evenodd" d="M642.398 1029.29H555.689C535.001 1029.29 518.231 1012.52 518.231 991.836V905.127C518.231 884.44 535.001 867.67 555.689 867.67H642.398C663.086 867.67 679.855 884.44 679.855 905.127V991.836C679.855 1012.52 663.086 1029.29 642.398 1029.29Z" fill="#FF0057"/>
<path d="M1153.18 867.67H744.312C739.531 867.67 735.654 871.546 735.654 876.328C735.654 881.11 739.531 884.987 744.312 884.987H1153.18C1157.96 884.987 1161.84 881.11 1161.84 876.328C1161.84 871.546 1157.96 867.67 1153.18 867.67Z" fill="#E7EAFD"/>
<path d="M1153.18 1118.76H744.312C739.531 1118.76 735.654 1122.64 735.654 1127.42C735.654 1132.2 739.531 1136.08 744.312 1136.08H1153.18C1157.96 1136.08 1161.84 1132.2 1161.84 1127.42C1161.84 1122.64 1157.96 1118.76 1153.18 1118.76Z" fill="#E7EAFD"/>
<path d="M1046.4 929.24H744.312C739.531 929.24 735.654 933.117 735.654 937.899C735.654 942.681 739.531 946.557 744.312 946.557H1046.4C1051.18 946.557 1055.05 942.681 1055.05 937.899C1055.05 933.117 1051.18 929.24 1046.4 929.24Z" fill="#E7EAFD"/>
<path d="M1046.4 1180.33H744.312C739.531 1180.33 735.654 1184.21 735.654 1188.99C735.654 1193.78 739.531 1197.65 744.312 1197.65H1046.4C1051.18 1197.65 1055.05 1193.78 1055.05 1188.99C1055.05 1184.21 1051.18 1180.33 1046.4 1180.33Z" fill="#E7EAFD"/>
<path d="M974.242 990.812H744.312C739.531 990.812 735.654 994.688 735.654 999.47C735.654 1004.25 739.531 1008.13 744.312 1008.13H974.242C979.024 1008.13 982.9 1004.25 982.9 999.47C982.9 994.688 979.024 990.812 974.242 990.812Z" fill="#E7EAFD"/>
<path d="M974.242 1241.91H744.312C739.531 1241.91 735.654 1245.78 735.654 1250.56C735.654 1255.35 739.531 1259.22 744.312 1259.22H974.242C979.024 1259.22 982.9 1255.35 982.9 1250.56C982.9 1245.78 979.024 1241.91 974.242 1241.91Z" fill="#E7EAFD"/>
<path d="M1666.8 1680C1668.01 1680 1669 1681.34 1669 1683C1669 1684.6 1668.08 1685.91 1666.92 1686L1666.8 1686H2.20185C0.9858 1686 0 1684.66 0 1683C0 1681.4 0.921178 1680.09 2.08104 1680L2.20185 1680H1666.8Z" fill="#090E2B"/>
<path fill-rule="evenodd" clip-rule="evenodd" d="M1254.98 1461.7C1213.03 1405.07 1274.86 1391.39 1246.18 1338.07C1211.42 1273.45 1261.29 1286.43 1239.81 1221.4C1222.81 1169.95 1193.13 1167.74 1190.48 1094.41C1187.84 1021.08 1055.77 1016.94 1084.31 1119.43C1112.85 1221.91 1039.42 1196.67 1052.34 1271.13C1069.61 1370.65 1000.31 1330.79 1022.39 1407.39C1041.17 1472.55 961.09 1581.77 1151.44 1607.4C1320.85 1598.74 1296.93 1518.33 1254.98 1461.7Z" fill="#009BA0"/>
<path d="M1109.39 1343.8C1109.39 1343.8 1116.39 1374.96 1149.8 1407.29" stroke="#090E2B" stroke-width="9.107" stroke-linecap="round" stroke-linejoin="round"/>
<path d="M1078.61 1466.94C1078.61 1466.94 1090.93 1497.63 1149.8 1529.47" stroke="#090E2B" stroke-width="9.107" stroke-linecap="round" stroke-linejoin="round"/>
<path d="M1209.45 1393.82C1209.45 1393.82 1201.74 1442.86 1149.8 1478.48" stroke="#090E2B" stroke-width="9.107" stroke-linecap="round" stroke-linejoin="round"/>
<path fill-rule="evenodd" clip-rule="evenodd" d="M1603.51 1236.51C1566.94 1146.58 1621.14 1083.1 1546.77 912.743C1472.39 742.389 1371.1 741.788 1355.73 884.694C1340.37 1027.6 1220.93 1118.33 1276.02 1247.33C1330.15 1374.1 1218 1403.78 1254.39 1497.79C1300.64 1617.27 1453.72 1621.83 1453.72 1621.83C1620.43 1621.83 1647.52 1566.79 1660.54 1518.96C1694.66 1393.54 1619.29 1275.33 1603.51 1236.51Z" fill="#FFB201"/>
<path d="M1532.7 1083.08C1532.7 1083.08 1519.21 1151.55 1454.77 1222.58" stroke="#090E2B" stroke-width="9.107" stroke-linecap="round" stroke-linejoin="round"/>
<path d="M1556.75 1368.81C1556.75 1368.81 1538.93 1437.28 1453.81 1508.31" stroke="#090E2B" stroke-width="9.107" stroke-linecap="round" stroke-linejoin="round"/>
<path d="M1369.15 1228.35C1369.15 1228.35 1380.21 1309.72 1454.77 1368.81" stroke="#090E2B" stroke-width="9.107" stroke-linecap="round" stroke-linejoin="round"/>
<path d="M1148.84 1683.4V1272.61" stroke="#090E2B" stroke-width="9.107" stroke-linecap="round" stroke-linejoin="round"/>
<path d="M1453.81 1677.63V998.423" stroke="#090E2B" stroke-width="9.107" stroke-linecap="round" stroke-linejoin="round"/>
<path fill-rule="evenodd" clip-rule="evenodd" d="M160.735 1683.88C160.735 1683.88 124.284 1570.05 51.0193 1465.83C-22.2455 1361.62 -11.5578 1290.65 51.0193 1272.36C113.596 1254.08 215.286 1308.05 246.75 1381.79C267.095 1429.46 301.662 1580.25 216.388 1683.88C192.025 1683.21 160.735 1683.88 160.735 1683.88Z" fill="#017C7F"/>
<path fill-rule="evenodd" clip-rule="evenodd" d="M145.361 1288.67C100.51 1084.81 178.151 1056.84 264.454 1081.52C350.757 1106.21 408.941 1213.62 395.777 1316.24C375.684 1472.87 257.869 1683.88 257.869 1683.88H190.212C190.212 1556.32 175.262 1424.58 145.361 1288.67Z" fill="#009BA0"/>
<path d="M241.29 1148.39C242.463 1147.86 243.836 1148.35 244.425 1149.48L244.503 1149.64L244.872 1150.49L245.333 1151.58C245.512 1152.01 245.702 1152.48 245.903 1152.97L246.212 1153.74C247.565 1157.13 249.071 1161.17 250.691 1165.85C255.31 1179.19 259.925 1194.99 264.23 1213.2C274.412 1256.25 281.273 1305.8 283.288 1361.53C285.094 1411.48 281.739 1459.47 273.143 1512.81L272.834 1514.71C265.363 1560.52 254.781 1607.71 235.554 1684.11C235.229 1685.4 233.915 1686.19 232.621 1685.86C231.326 1685.54 230.541 1684.22 230.867 1682.93L232.571 1676.14C250.692 1603.83 260.843 1558.2 268.063 1513.94C276.838 1460.13 280.273 1411.92 278.457 1361.71C276.454 1306.3 269.636 1257.06 259.526 1214.31L258.968 1211.97C254.861 1194.91 250.491 1180.04 246.123 1167.43L245.623 1166C244.218 1162 242.909 1158.51 241.723 1155.53L241.278 1154.43C241.136 1154.08 241 1153.75 240.87 1153.44L240.428 1152.39L240.08 1151.59C239.531 1150.37 240.073 1148.94 241.29 1148.39Z" fill="#090E2B"/>
<path fill-rule="evenodd" clip-rule="evenodd" d="M474.695 1301.64C604.281 1295.04 612.518 1402.62 595.708 1446.91C575.876 1499.17 516.374 1534 468.837 1554.69C357.004 1603.37 328.532 1683.88 328.532 1683.88H230.616C230.616 1683.88 249.301 1313.12 474.695 1301.64Z" fill="#FFB201"/>
<path d="M493.998 1383.99C495.234 1383.49 496.644 1384.09 497.147 1385.32C497.65 1386.56 497.056 1387.97 495.819 1388.47C382.684 1434.5 312.278 1532.89 284.556 1683.95C284.315 1685.27 283.055 1686.14 281.742 1685.89C280.429 1685.65 279.56 1684.39 279.801 1683.08C307.803 1530.49 379.218 1430.69 493.998 1383.99Z" fill="#090E2B"/>
</svg>
