<svg width="2004" height="1689" viewBox="0 0 2004 1689" fill="none" xmlns="http://www.w3.org/2000/svg">
<path fill-rule="evenodd" clip-rule="evenodd" d="M989.008 1683.35H268.688C211.998 1683.35 166.041 1637.39 166.041 1580.7V103.511C166.041 46.8204 211.998 0.86377 268.688 0.86377H989.008C1045.7 0.86377 1091.66 46.8204 1091.66 103.511V1580.7C1091.66 1637.39 1045.7 1683.35 989.008 1683.35Z" fill="#22212F"/>
<path fill-rule="evenodd" clip-rule="evenodd" d="M961.982 70.1313H852.975V98.2816C852.975 136.66 821.863 167.775 783.482 167.775H474.214C435.833 167.775 404.718 136.66 404.718 98.2793V70.1313H295.716C262.353 70.1313 235.306 97.1757 235.306 130.539V1553.67C235.306 1587.04 262.353 1614.08 295.716 1614.08H961.979C995.343 1614.08 1022.39 1587.04 1022.39 1553.67V130.539C1022.39 97.1757 995.343 70.1313 961.982 70.1313Z" fill="white"/>
<path fill-rule="evenodd" clip-rule="evenodd" d="M436.271 1268.62H349.562C328.874 1268.62 312.104 1251.85 312.104 1231.16V1144.45C312.104 1123.76 328.874 1106.99 349.562 1106.99H436.271C456.958 1106.99 473.728 1123.76 473.728 1144.45V1231.16C473.728 1251.85 456.958 1268.62 436.271 1268.62Z" stroke="#C7D2F2" stroke-width="5" stroke-linecap="round" stroke-linejoin="round" stroke-dasharray="10 12"/>
<path fill-rule="evenodd" clip-rule="evenodd" d="M436.439 1268.84H349.73C329.042 1268.84 312.272 1252.07 312.272 1231.39V1144.68C312.272 1123.99 329.042 1107.22 349.73 1107.22H436.439C457.127 1107.22 473.896 1123.99 473.896 1144.68V1231.39C473.896 1252.07 457.127 1268.84 436.439 1268.84Z" fill="#FFB201"/>
<path fill-rule="evenodd" clip-rule="evenodd" d="M918.114 773.078H350.041C329.181 773.078 312.272 756.308 312.272 735.62V428.913C312.272 408.225 329.181 391.456 350.041 391.456H918.114C938.973 391.456 955.882 408.225 955.882 428.913V735.62C955.882 756.308 938.973 773.078 918.114 773.078Z" fill="#A191FF"/>
<path fill-rule="evenodd" clip-rule="evenodd" d="M436.439 1029.29H349.73C329.042 1029.29 312.272 1012.52 312.272 991.836V905.127C312.272 884.44 329.042 867.67 349.73 867.67H436.439C457.127 867.67 473.896 884.44 473.896 905.127V991.836C473.896 1012.52 457.127 1029.29 436.439 1029.29Z" fill="#FF0057"/>
<path d="M947.224 867.67H538.354C533.572 867.67 529.695 871.546 529.695 876.328C529.695 881.11 533.572 884.987 538.354 884.987H947.224C952.006 884.987 955.882 881.11 955.882 876.328C955.882 871.546 952.006 867.67 947.224 867.67Z" fill="#E7EAFD"/>
<path d="M947.224 1118.76H538.354C533.572 1118.76 529.695 1122.64 529.695 1127.42C529.695 1132.2 533.572 1136.08 538.354 1136.08H947.224C952.006 1136.08 955.882 1132.2 955.882 1127.42C955.882 1122.64 952.006 1118.76 947.224 1118.76Z" fill="#E7EAFD"/>
<path d="M840.437 929.24H538.354C533.572 929.24 529.695 933.117 529.695 937.899C529.695 942.681 533.572 946.557 538.354 946.557H840.437C845.218 946.557 849.095 942.681 849.095 937.899C849.095 933.117 845.218 929.24 840.437 929.24Z" fill="#E7EAFD"/>
<path d="M840.437 1180.33H538.354C533.572 1180.33 529.695 1184.21 529.695 1188.99C529.695 1193.78 533.572 1197.65 538.354 1197.65H840.437C845.218 1197.65 849.095 1193.78 849.095 1188.99C849.095 1184.21 845.218 1180.33 840.437 1180.33Z" fill="#E7EAFD"/>
<path d="M768.283 990.812H538.353C533.572 990.812 529.695 994.688 529.695 999.47C529.695 1004.25 533.572 1008.13 538.353 1008.13H768.283C773.065 1008.13 776.941 1004.25 776.941 999.47C776.941 994.688 773.065 990.812 768.283 990.812Z" fill="#E7EAFD"/>
<path d="M768.283 1241.91H538.353C533.572 1241.91 529.695 1245.78 529.695 1250.56C529.695 1255.35 533.572 1259.22 538.353 1259.22H768.283C773.065 1259.22 776.941 1255.35 776.941 1250.56C776.941 1245.78 773.065 1241.91 768.283 1241.91Z" fill="#E7EAFD"/>
<path d="M1666.8 1680C1668.01 1680 1669 1681.34 1669 1683C1669 1684.6 1668.08 1685.91 1666.92 1686L1666.8 1686H2.20185C0.9858 1686 0 1684.66 0 1683C0 1681.4 0.921178 1680.09 2.08104 1680L2.20185 1680H1666.8Z" fill="#090E2B"/>
<path fill-rule="evenodd" clip-rule="evenodd" d="M1589.23 1461.79C1547.28 1405.16 1609.11 1391.48 1580.42 1338.15C1545.66 1273.54 1595.54 1286.51 1574.06 1221.49C1557.06 1170.04 1527.37 1167.82 1524.73 1094.49C1522.09 1021.16 1390.01 1017.03 1418.56 1119.51C1447.1 1221.99 1373.67 1196.76 1386.59 1271.22C1403.86 1370.74 1334.56 1330.88 1356.63 1407.47C1375.41 1472.63 1295.34 1581.86 1485.69 1607.48C1655.1 1598.82 1631.18 1518.42 1589.23 1461.79Z" fill="#009BA0"/>
<path d="M1443.64 1343.88C1443.64 1343.88 1450.63 1375.05 1484.05 1407.38" stroke="#090E2B" stroke-width="9.107" stroke-linecap="round" stroke-linejoin="round"/>
<path d="M1412.86 1467.03C1412.86 1467.03 1425.18 1497.71 1484.05 1529.56" stroke="#090E2B" stroke-width="9.107" stroke-linecap="round" stroke-linejoin="round"/>
<path d="M1543.69 1393.91C1543.69 1393.91 1535.99 1442.95 1484.05 1478.57" stroke="#090E2B" stroke-width="9.107" stroke-linecap="round" stroke-linejoin="round"/>
<path fill-rule="evenodd" clip-rule="evenodd" d="M1937.75 1236.6C1901.18 1146.66 1955.39 1083.18 1881.01 912.828C1806.64 742.474 1705.34 741.873 1689.98 884.779C1674.62 1027.69 1555.18 1118.42 1610.26 1247.41C1664.4 1374.18 1552.25 1403.87 1588.63 1497.87C1634.88 1617.36 1787.97 1621.91 1787.97 1621.91C1954.68 1621.91 1981.77 1566.87 1994.78 1519.05C2028.91 1393.62 1953.54 1275.41 1937.75 1236.6Z" fill="#FFB201"/>
<path d="M1866.94 1083.17C1866.94 1083.17 1853.45 1151.63 1789.02 1222.66" stroke="#090E2B" stroke-width="9.107" stroke-linecap="round" stroke-linejoin="round"/>
<path d="M1890.99 1368.9C1890.99 1368.9 1873.18 1437.36 1788.05 1508.39" stroke="#090E2B" stroke-width="9.107" stroke-linecap="round" stroke-linejoin="round"/>
<path d="M1703.39 1228.44C1703.39 1228.44 1714.46 1309.8 1789.02 1368.9" stroke="#090E2B" stroke-width="9.107" stroke-linecap="round" stroke-linejoin="round"/>
<path d="M1483.08 1683.49V1272.69" stroke="#090E2B" stroke-width="9.107" stroke-linecap="round" stroke-linejoin="round"/>
<path d="M1788.05 1677.71V998.508" stroke="#090E2B" stroke-width="9.107" stroke-linecap="round" stroke-linejoin="round"/>
<path fill-rule="evenodd" clip-rule="evenodd" d="M1215.52 1683.49C1215.52 1683.49 1172 1547.55 1084.51 1423.11C997.024 1298.67 1009.79 1213.92 1084.51 1192.09C1159.23 1170.26 1280.66 1234.7 1318.23 1322.75C1342.53 1379.68 1383.81 1559.74 1281.98 1683.49C1252.89 1682.68 1215.52 1683.49 1215.52 1683.49Z" fill="#017C7F"/>
<path fill-rule="evenodd" clip-rule="evenodd" d="M1197.16 1211.56C1143.61 968.127 1236.32 934.725 1339.37 964.201C1442.43 993.677 1511.91 1121.94 1496.19 1244.48C1472.2 1431.51 1331.51 1683.49 1331.51 1683.49H1250.72C1250.72 1531.16 1232.87 1373.85 1197.16 1211.56Z" fill="#009BA0"/>
<path d="M1311.71 1044.05C1313.12 1043.42 1314.76 1044 1315.46 1045.34L1315.55 1045.54L1315.99 1046.55L1316.54 1047.86C1316.76 1048.37 1316.98 1048.93 1317.22 1049.52L1317.59 1050.44C1319.21 1054.49 1321.01 1059.31 1322.94 1064.89C1328.46 1080.82 1333.97 1099.69 1339.11 1121.43C1351.27 1172.84 1359.46 1232.01 1361.86 1298.56C1364.02 1358.21 1360.01 1415.51 1349.75 1479.2L1349.38 1481.48C1340.46 1536.18 1327.82 1592.53 1304.87 1683.75C1304.48 1685.3 1302.91 1686.24 1301.36 1685.85C1299.82 1685.46 1298.88 1683.89 1299.27 1682.34L1301.3 1674.24C1322.94 1587.89 1335.06 1533.41 1343.68 1480.55C1354.16 1416.3 1358.26 1358.73 1356.1 1298.77C1353.7 1232.61 1345.56 1173.81 1333.49 1122.76L1332.82 1119.97C1327.92 1099.59 1322.7 1081.84 1317.49 1066.78L1316.89 1065.07C1315.21 1060.29 1313.65 1056.13 1312.23 1052.58L1311.7 1051.26C1311.53 1050.84 1311.37 1050.45 1311.21 1050.08L1310.69 1048.82L1310.27 1047.87C1309.61 1046.42 1310.26 1044.71 1311.71 1044.05Z" fill="#090E2B"/>
<path fill-rule="evenodd" clip-rule="evenodd" d="M1590.43 1227.05C1745.17 1219.17 1755 1347.62 1734.93 1400.51C1711.25 1462.91 1640.19 1504.51 1583.43 1529.21C1449.89 1587.34 1415.89 1683.49 1415.89 1683.49H1298.97C1298.97 1683.49 1321.28 1240.76 1590.43 1227.05Z" fill="#FFB201"/>
<path d="M1613.47 1325.38C1614.95 1324.78 1616.63 1325.49 1617.24 1326.97C1617.84 1328.45 1617.13 1330.13 1615.65 1330.73C1480.55 1385.69 1396.48 1503.18 1363.38 1683.57C1363.09 1685.14 1361.59 1686.17 1360.02 1685.89C1358.45 1685.6 1357.41 1684.09 1357.7 1682.53C1391.14 1500.32 1476.41 1381.15 1613.47 1325.38Z" fill="#090E2B"/>
</svg>
